# xmcd
#
# Track frame offsets:
#	150
#	17121
#	38848
#	43347
#	61924
#	70721
#	83796
#	102007
#	116308
#	135216
#	150831
#	159159
#	174248
#	201561
#
# Disc length: 2806 seconds
#
# Revision: 1
# Processed by: cddbd v1.5.2PL0 Copyright (c) Steve Scherf et al.
# Submitted via: dBpowerAMP V4.0
#
DISCID=a20af40e
DTITLE=The Fantastic Terrific Munkle - The Cahoots
DYEAR=2005
DGENRE=Jazz
TTITLE0=Sad Mafioso Woe Song
TTITLE1=Low Flying Birds
TTITLE2=Guinea Fowl
TTITLE3=The Duck
TTITLE4=Captain Terriffic and His Pet Catfish
TTITLE5=What's New Pussycat
TTITLE6=Ourimbah Rd
TTITLE7=Munkle Blues
TTITLE8=Artax (Swamps of Sadness)
TTITLE9=Friand
TTITLE10=The Cahoots
TTITLE11=All Of Me
TTITLE12=Coronation Street
TTITLE13=Hoedown
EXTD=
EXTT0=
EXTT1=
EXTT2=
EXTT3=
EXTT4=
EXTT5=
EXTT6=
EXTT7=
EXTT8=
EXTT9=
EXTT10=
EXTT11=
EXTT12=
EXTT13=
PLAYORDER=
